<?xml version="1.0" encoding="utf-8" standalone="no"?>
<!DOCTYPE svg PUBLIC "-//W3C//DTD SVG 1.1//EN"
  "http://www.w3.org/Graphics/SVG/1.1/DTD/svg11.dtd">
<svg xmlns:xlink="http://www.w3.org/1999/xlink" width="576pt" height="576pt" viewBox="0 0 576 576" xmlns="http://www.w3.org/2000/svg" version="1.1">
 <metadata>
  <rdf:RDF xmlns:dc="http://purl.org/dc/elements/1.1/" xmlns:cc="http://creativecommons.org/ns#" xmlns:rdf="http://www.w3.org/1999/02/22-rdf-syntax-ns#">
   <cc:Work>
    <dc:type rdf:resource="http://purl.org/dc/dcmitype/StillImage"/>
    <dc:date>2024-11-14T17:18:24.309899</dc:date>
    <dc:format>image/svg+xml</dc:format>
    <dc:creator>
     <cc:Agent>
      <dc:title>Matplotlib v3.7.1, https://matplotlib.org/</dc:title>
     </cc:Agent>
    </dc:creator>
   </cc:Work>
  </rdf:RDF>
 </metadata>
 <defs>
  <style type="text/css">*{stroke-linejoin: round; stroke-linecap: butt}</style>
 </defs>
 <g id="figure_1">
  <g id="patch_1">
   <path d="M 0 576 
L 576 576 
L 576 0 
L 0 0 
L 0 576 
z
" style="fill: none"/>
  </g>
  <g id="axes_1">
   <g id="patch_2">
    <path d="M 75.572353 134.510463 
L 220.714502 134.510463 
L 220.714502 26.55972 
L 75.572353 26.55972 
L 75.572353 134.510463 
z
" style="fill: none"/>
   </g>
   <g id="matplotlib.axis_1">
    <g id="xtick_1">
     <g id="line2d_1"/>
    </g>
    <g id="xtick_2">
     <g id="line2d_2"/>
    </g>
   </g>
   <g id="matplotlib.axis_2">
    <g id="ytick_1">
     <g id="line2d_3">
      <path d="M 75.572353 126.20656 
L 220.714502 126.20656 
" clip-path="url(#p22d4c5eeaf)" style="fill: none; stroke: #d3d3d3; stroke-width: 0.5; stroke-linecap: square"/>
     </g>
     <g id="line2d_4">
      <defs>
       <path id="m548df4de03" d="M 0 0 
L -3.5 0 
" style="stroke: #000000; stroke-width: 0.8"/>
      </defs>
      <g>
       <use xlink:href="#m548df4de03" x="75.572353" y="126.20656" style="stroke: #000000; stroke-width: 0.8"/>
      </g>
     </g>
     <g id="text_1">
      <!-- 25% -->
      <g transform="translate(36.549853 131.93281) scale(0.16 -0.16)">
       <defs>
        <path id="ArialMT-32" d="M 3222 541 
L 3222 0 
L 194 0 
Q 188 203 259 391 
Q 375 700 629 1000 
Q 884 1300 1366 1694 
Q 2113 2306 2375 2664 
Q 2638 3022 2638 3341 
Q 2638 3675 2398 3904 
Q 2159 4134 1775 4134 
Q 1369 4134 1125 3890 
Q 881 3647 878 3216 
L 300 3275 
Q 359 3922 746 4261 
Q 1134 4600 1788 4600 
Q 2447 4600 2831 4234 
Q 3216 3869 3216 3328 
Q 3216 3053 3103 2787 
Q 2991 2522 2730 2228 
Q 2469 1934 1863 1422 
Q 1356 997 1212 845 
Q 1069 694 975 541 
L 3222 541 
z
" transform="scale(0.015625)"/>
        <path id="ArialMT-35" d="M 266 1200 
L 856 1250 
Q 922 819 1161 601 
Q 1400 384 1738 384 
Q 2144 384 2425 690 
Q 2706 997 2706 1503 
Q 2706 1984 2436 2262 
Q 2166 2541 1728 2541 
Q 1456 2541 1237 2417 
Q 1019 2294 894 2097 
L 366 2166 
L 809 4519 
L 3088 4519 
L 3088 3981 
L 1259 3981 
L 1013 2750 
Q 1425 3038 1878 3038 
Q 2478 3038 2890 2622 
Q 3303 2206 3303 1553 
Q 3303 931 2941 478 
Q 2500 -78 1738 -78 
Q 1113 -78 717 272 
Q 322 622 266 1200 
z
" transform="scale(0.015625)"/>
        <path id="ArialMT-25" d="M 372 3481 
Q 372 3972 619 4315 
Q 866 4659 1334 4659 
Q 1766 4659 2048 4351 
Q 2331 4044 2331 3447 
Q 2331 2866 2045 2552 
Q 1759 2238 1341 2238 
Q 925 2238 648 2547 
Q 372 2856 372 3481 
z
M 1350 4272 
Q 1141 4272 1002 4090 
Q 863 3909 863 3425 
Q 863 2984 1003 2804 
Q 1144 2625 1350 2625 
Q 1563 2625 1702 2806 
Q 1841 2988 1841 3469 
Q 1841 3913 1700 4092 
Q 1559 4272 1350 4272 
z
M 1353 -169 
L 3859 4659 
L 4316 4659 
L 1819 -169 
L 1353 -169 
z
M 3334 1075 
Q 3334 1569 3581 1911 
Q 3828 2253 4300 2253 
Q 4731 2253 5014 1945 
Q 5297 1638 5297 1041 
Q 5297 459 5011 145 
Q 4725 -169 4303 -169 
Q 3888 -169 3611 142 
Q 3334 453 3334 1075 
z
M 4316 1866 
Q 4103 1866 3964 1684 
Q 3825 1503 3825 1019 
Q 3825 581 3965 400 
Q 4106 219 4313 219 
Q 4528 219 4667 400 
Q 4806 581 4806 1063 
Q 4806 1506 4665 1686 
Q 4525 1866 4316 1866 
z
" transform="scale(0.015625)"/>
       </defs>
       <use xlink:href="#ArialMT-32"/>
       <use xlink:href="#ArialMT-35" x="55.615234"/>
       <use xlink:href="#ArialMT-25" x="111.230469"/>
      </g>
     </g>
    </g>
    <g id="ytick_2">
     <g id="line2d_5">
      <path d="M 75.572353 84.687043 
L 220.714502 84.687043 
" clip-path="url(#p22d4c5eeaf)" style="fill: none; stroke: #d3d3d3; stroke-width: 0.5; stroke-linecap: square"/>
     </g>
     <g id="line2d_6">
      <g>
       <use xlink:href="#m548df4de03" x="75.572353" y="84.687043" style="stroke: #000000; stroke-width: 0.8"/>
      </g>
     </g>
     <g id="text_2">
      <!-- 50% -->
      <g transform="translate(36.549853 90.413293) scale(0.16 -0.16)">
       <defs>
        <path id="ArialMT-30" d="M 266 2259 
Q 266 3072 433 3567 
Q 600 4063 929 4331 
Q 1259 4600 1759 4600 
Q 2128 4600 2406 4451 
Q 2684 4303 2865 4023 
Q 3047 3744 3150 3342 
Q 3253 2941 3253 2259 
Q 3253 1453 3087 958 
Q 2922 463 2592 192 
Q 2263 -78 1759 -78 
Q 1097 -78 719 397 
Q 266 969 266 2259 
z
M 844 2259 
Q 844 1131 1108 757 
Q 1372 384 1759 384 
Q 2147 384 2411 759 
Q 2675 1134 2675 2259 
Q 2675 3391 2411 3762 
Q 2147 4134 1753 4134 
Q 1366 4134 1134 3806 
Q 844 3388 844 2259 
z
" transform="scale(0.015625)"/>
       </defs>
       <use xlink:href="#ArialMT-35"/>
       <use xlink:href="#ArialMT-30" x="55.615234"/>
       <use xlink:href="#ArialMT-25" x="111.230469"/>
      </g>
     </g>
    </g>
    <g id="ytick_3">
     <g id="line2d_7">
      <path d="M 75.572353 43.167527 
L 220.714502 43.167527 
" clip-path="url(#p22d4c5eeaf)" style="fill: none; stroke: #d3d3d3; stroke-width: 0.5; stroke-linecap: square"/>
     </g>
     <g id="line2d_8">
      <g>
       <use xlink:href="#m548df4de03" x="75.572353" y="43.167527" style="stroke: #000000; stroke-width: 0.8"/>
      </g>
     </g>
     <g id="text_3">
      <!-- 75% -->
      <g transform="translate(36.549853 48.893777) scale(0.16 -0.16)">
       <defs>
        <path id="ArialMT-37" d="M 303 3981 
L 303 4522 
L 3269 4522 
L 3269 4084 
Q 2831 3619 2401 2847 
Q 1972 2075 1738 1259 
Q 1569 684 1522 0 
L 944 0 
Q 953 541 1156 1306 
Q 1359 2072 1739 2783 
Q 2119 3494 2547 3981 
L 303 3981 
z
" transform="scale(0.015625)"/>
       </defs>
       <use xlink:href="#ArialMT-37"/>
       <use xlink:href="#ArialMT-35" x="55.615234"/>
       <use xlink:href="#ArialMT-25" x="111.230469"/>
      </g>
     </g>
    </g>
   </g>
   <g id="line2d_9">
    <path d="M 123.95307 64.015579 
L 123.95307 50.57342 
" clip-path="url(#p22d4c5eeaf)" style="fill: none; stroke: #000000; stroke-width: 1.5; stroke-linecap: square"/>
   </g>
   <g id="line2d_10">
    <path d="M 172.333786 85.527519 
L 172.333786 71.407522 
" clip-path="url(#p22d4c5eeaf)" style="fill: none; stroke: #000000; stroke-width: 1.5; stroke-linecap: square"/>
   </g>
   <g id="LineCollection_1">
    <path d="M 191.686072 78.467521 
L 191.686072 57.294499 
" clip-path="url(#p22d4c5eeaf)" style="fill: none; stroke: #000000"/>
   </g>
   <g id="LineCollection_2">
    <path d="M 186.848001 57.294499 
L 191.686072 57.294499 
" clip-path="url(#p22d4c5eeaf)" style="fill: none; stroke: #000000"/>
   </g>
   <g id="LineCollection_3">
    <path d="M 186.848001 78.467521 
L 191.686072 78.467521 
" clip-path="url(#p22d4c5eeaf)" style="fill: none; stroke: #000000"/>
   </g>
   <g id="patch_3">
    <path d="M 75.572353 134.510463 
L 75.572353 26.55972 
" style="fill: none; stroke: #000000; stroke-width: 0.8; stroke-linejoin: miter; stroke-linecap: square"/>
   </g>
   <g id="patch_4">
    <path d="M 75.572353 134.510463 
L 220.714502 134.510463 
" style="fill: none; stroke: #000000; stroke-width: 0.8; stroke-linejoin: miter; stroke-linecap: square"/>
   </g>
   <g id="PathCollection_1">
    <defs>
     <path id="m6c4fdea22c" d="M 0 4.1833 
C 1.109424 4.1833 2.173559 3.742521 2.95804 2.95804 
C 3.742521 2.173559 4.1833 1.109424 4.1833 0 
C 4.1833 -1.109424 3.742521 -2.173559 2.95804 -2.95804 
C 2.173559 -3.742521 1.109424 -4.1833 0 -4.1833 
C -1.109424 -4.1833 -2.173559 -3.742521 -2.95804 -2.95804 
C -3.742521 -2.173559 -4.1833 -1.109424 -4.1833 0 
C -4.1833 1.109424 -3.742521 2.173559 -2.95804 2.95804 
C -2.173559 3.742521 -1.109424 4.1833 0 4.1833 
z
" style="stroke: #7e9ea8"/>
    </defs>
    <g clip-path="url(#p22d4c5eeaf)">
     <use xlink:href="#m6c4fdea22c" x="123.95307" y="57.294499" style="fill: #9ec6d2; stroke: #7e9ea8"/>
    </g>
   </g>
   <g id="PathCollection_2">
    <defs>
     <path id="mc7f10ebc28" d="M 4.1833 0 
L -4.1833 -4.1833 
L -4.1833 4.1833 
z
" style="stroke: #7e9ea8"/>
    </defs>
    <g clip-path="url(#p22d4c5eeaf)">
     <use xlink:href="#mc7f10ebc28" x="172.333786" y="78.467521" style="fill: #9ec6d2; stroke: #7e9ea8"/>
    </g>
   </g>
   <g id="text_4">
    <!-- -13% -->
    <g transform="translate(175.585447 53.847061) scale(0.14 -0.14)">
     <defs>
      <path id="ArialMT-2d" d="M 203 1375 
L 203 1941 
L 1931 1941 
L 1931 1375 
L 203 1375 
z
" transform="scale(0.015625)"/>
      <path id="ArialMT-31" d="M 2384 0 
L 1822 0 
L 1822 3584 
Q 1619 3391 1289 3197 
Q 959 3003 697 2906 
L 697 3450 
Q 1169 3672 1522 3987 
Q 1875 4303 2022 4600 
L 2384 4600 
L 2384 0 
z
" transform="scale(0.015625)"/>
      <path id="ArialMT-33" d="M 269 1209 
L 831 1284 
Q 928 806 1161 595 
Q 1394 384 1728 384 
Q 2125 384 2398 659 
Q 2672 934 2672 1341 
Q 2672 1728 2419 1979 
Q 2166 2231 1775 2231 
Q 1616 2231 1378 2169 
L 1441 2663 
Q 1497 2656 1531 2656 
Q 1891 2656 2178 2843 
Q 2466 3031 2466 3422 
Q 2466 3731 2256 3934 
Q 2047 4138 1716 4138 
Q 1388 4138 1169 3931 
Q 950 3725 888 3313 
L 325 3413 
Q 428 3978 793 4289 
Q 1159 4600 1703 4600 
Q 2078 4600 2393 4439 
Q 2709 4278 2876 4000 
Q 3044 3722 3044 3409 
Q 3044 3113 2884 2869 
Q 2725 2625 2413 2481 
Q 2819 2388 3044 2092 
Q 3269 1797 3269 1353 
Q 3269 753 2831 336 
Q 2394 -81 1725 -81 
Q 1122 -81 723 278 
Q 325 638 269 1209 
z
" transform="scale(0.015625)"/>
     </defs>
     <use xlink:href="#ArialMT-2d"/>
     <use xlink:href="#ArialMT-31" x="33.300781"/>
     <use xlink:href="#ArialMT-33" x="88.916016"/>
     <use xlink:href="#ArialMT-25" x="144.53125"/>
    </g>
   </g>
   <g id="patch_5">
    <path d="M 99.762711 123.648099 
Q 99.762711 84.68894 99.762711 45.729781 
" style="fill: none; stroke-dasharray: 2.5,5; stroke-dashoffset: 0; stroke: #000000; stroke-width: 0.5; stroke-linecap: round"/>
    <path d="M 101.762711 119.648099 
L 99.762711 123.648099 
L 97.762711 119.648099 
z
" style="stroke-dasharray: 2.5,5; stroke-dashoffset: 0; stroke: #000000; stroke-width: 0.5; stroke-linecap: round"/>
    <path d="M 97.762711 49.729781 
L 99.762711 45.729781 
L 101.762711 49.729781 
z
" style="stroke-dasharray: 2.5,5; stroke-dashoffset: 0; stroke: #000000; stroke-width: 0.5; stroke-linecap: round"/>
   </g>
   <g id="text_5">
    <!-- Good -->
    <g transform="translate(97.059213 79.163774) rotate(-90) scale(0.12 -0.12)">
     <defs>
      <path id="ArialMT-47" d="M 2638 1797 
L 2638 2334 
L 4578 2338 
L 4578 638 
Q 4131 281 3656 101 
Q 3181 -78 2681 -78 
Q 2006 -78 1454 211 
Q 903 500 622 1047 
Q 341 1594 341 2269 
Q 341 2938 620 3517 
Q 900 4097 1425 4378 
Q 1950 4659 2634 4659 
Q 3131 4659 3532 4498 
Q 3934 4338 4162 4050 
Q 4391 3763 4509 3300 
L 3963 3150 
Q 3859 3500 3706 3700 
Q 3553 3900 3268 4020 
Q 2984 4141 2638 4141 
Q 2222 4141 1919 4014 
Q 1616 3888 1430 3681 
Q 1244 3475 1141 3228 
Q 966 2803 966 2306 
Q 966 1694 1177 1281 
Q 1388 869 1791 669 
Q 2194 469 2647 469 
Q 3041 469 3416 620 
Q 3791 772 3984 944 
L 3984 1797 
L 2638 1797 
z
" transform="scale(0.015625)"/>
      <path id="ArialMT-6f" d="M 213 1659 
Q 213 2581 725 3025 
Q 1153 3394 1769 3394 
Q 2453 3394 2887 2945 
Q 3322 2497 3322 1706 
Q 3322 1066 3130 698 
Q 2938 331 2570 128 
Q 2203 -75 1769 -75 
Q 1072 -75 642 372 
Q 213 819 213 1659 
z
M 791 1659 
Q 791 1022 1069 705 
Q 1347 388 1769 388 
Q 2188 388 2466 706 
Q 2744 1025 2744 1678 
Q 2744 2294 2464 2611 
Q 2184 2928 1769 2928 
Q 1347 2928 1069 2612 
Q 791 2297 791 1659 
z
" transform="scale(0.015625)"/>
      <path id="ArialMT-64" d="M 2575 0 
L 2575 419 
Q 2259 -75 1647 -75 
Q 1250 -75 917 144 
Q 584 363 401 755 
Q 219 1147 219 1656 
Q 219 2153 384 2558 
Q 550 2963 881 3178 
Q 1213 3394 1622 3394 
Q 1922 3394 2156 3267 
Q 2391 3141 2538 2938 
L 2538 4581 
L 3097 4581 
L 3097 0 
L 2575 0 
z
M 797 1656 
Q 797 1019 1065 703 
Q 1334 388 1700 388 
Q 2069 388 2326 689 
Q 2584 991 2584 1609 
Q 2584 2291 2321 2609 
Q 2059 2928 1675 2928 
Q 1300 2928 1048 2622 
Q 797 2316 797 1656 
z
" transform="scale(0.015625)"/>
     </defs>
     <use xlink:href="#ArialMT-47"/>
     <use xlink:href="#ArialMT-6f" x="77.783203"/>
     <use xlink:href="#ArialMT-6f" x="133.398438"/>
     <use xlink:href="#ArialMT-64" x="189.013672"/>
    </g>
   </g>
   <g id="text_6">
    <!-- Bad -->
    <g transform="translate(97.059213 116.241876) rotate(-90) scale(0.12 -0.12)">
     <defs>
      <path id="ArialMT-42" d="M 469 0 
L 469 4581 
L 2188 4581 
Q 2713 4581 3030 4442 
Q 3347 4303 3526 4014 
Q 3706 3725 3706 3409 
Q 3706 3116 3547 2856 
Q 3388 2597 3066 2438 
Q 3481 2316 3704 2022 
Q 3928 1728 3928 1328 
Q 3928 1006 3792 729 
Q 3656 453 3456 303 
Q 3256 153 2954 76 
Q 2653 0 2216 0 
L 469 0 
z
M 1075 2656 
L 2066 2656 
Q 2469 2656 2644 2709 
Q 2875 2778 2992 2937 
Q 3109 3097 3109 3338 
Q 3109 3566 3000 3739 
Q 2891 3913 2687 3977 
Q 2484 4041 1991 4041 
L 1075 4041 
L 1075 2656 
z
M 1075 541 
L 2216 541 
Q 2509 541 2628 563 
Q 2838 600 2978 687 
Q 3119 775 3209 942 
Q 3300 1109 3300 1328 
Q 3300 1584 3169 1773 
Q 3038 1963 2805 2039 
Q 2572 2116 2134 2116 
L 1075 2116 
L 1075 541 
z
" transform="scale(0.015625)"/>
      <path id="ArialMT-61" d="M 2588 409 
Q 2275 144 1986 34 
Q 1697 -75 1366 -75 
Q 819 -75 525 192 
Q 231 459 231 875 
Q 231 1119 342 1320 
Q 453 1522 633 1644 
Q 813 1766 1038 1828 
Q 1203 1872 1538 1913 
Q 2219 1994 2541 2106 
Q 2544 2222 2544 2253 
Q 2544 2597 2384 2738 
Q 2169 2928 1744 2928 
Q 1347 2928 1158 2789 
Q 969 2650 878 2297 
L 328 2372 
Q 403 2725 575 2942 
Q 747 3159 1072 3276 
Q 1397 3394 1825 3394 
Q 2250 3394 2515 3294 
Q 2781 3194 2906 3042 
Q 3031 2891 3081 2659 
Q 3109 2516 3109 2141 
L 3109 1391 
Q 3109 606 3145 398 
Q 3181 191 3288 0 
L 2700 0 
Q 2613 175 2588 409 
z
M 2541 1666 
Q 2234 1541 1622 1453 
Q 1275 1403 1131 1340 
Q 988 1278 909 1158 
Q 831 1038 831 891 
Q 831 666 1001 516 
Q 1172 366 1500 366 
Q 1825 366 2078 508 
Q 2331 650 2450 897 
Q 2541 1088 2541 1459 
L 2541 1666 
z
" transform="scale(0.015625)"/>
     </defs>
     <use xlink:href="#ArialMT-42"/>
     <use xlink:href="#ArialMT-61" x="66.699219"/>
     <use xlink:href="#ArialMT-64" x="122.314453"/>
    </g>
   </g>
   <g id="text_7">
    <!-- (a) -->
    <g transform="translate(3.001279 48.149869) scale(0.16 -0.16)">
     <defs>
      <path id="ArialMT-28" d="M 1497 -1347 
Q 1031 -759 709 28 
Q 388 816 388 1659 
Q 388 2403 628 3084 
Q 909 3875 1497 4659 
L 1900 4659 
Q 1522 4009 1400 3731 
Q 1209 3300 1100 2831 
Q 966 2247 966 1656 
Q 966 153 1900 -1347 
L 1497 -1347 
z
" transform="scale(0.015625)"/>
      <path id="ArialMT-29" d="M 791 -1347 
L 388 -1347 
Q 1322 153 1322 1656 
Q 1322 2244 1188 2822 
Q 1081 3291 891 3722 
Q 769 4003 388 4659 
L 791 4659 
Q 1378 3875 1659 3084 
Q 1900 2403 1900 1659 
Q 1900 816 1576 28 
Q 1253 -759 791 -1347 
z
" transform="scale(0.015625)"/>
     </defs>
     <use xlink:href="#ArialMT-28"/>
     <use xlink:href="#ArialMT-61" x="33.300781"/>
     <use xlink:href="#ArialMT-29" x="88.916016"/>
    </g>
   </g>
  </g>
  <g id="axes_2">
   <g id="patch_6">
    <path d="M 226.714982 134.510463 
L 371.857131 134.510463 
L 371.857131 26.55972 
L 226.714982 26.55972 
L 226.714982 134.510463 
z
" style="fill: none"/>
   </g>
   <g id="matplotlib.axis_3">
    <g id="xtick_3">
     <g id="line2d_11"/>
    </g>
    <g id="xtick_4">
     <g id="line2d_12"/>
    </g>
   </g>
   <g id="matplotlib.axis_4">
    <g id="ytick_4">
     <g id="line2d_13">
      <path d="M 226.714982 126.20656 
L 371.857131 126.20656 
" clip-path="url(#pd06b2272be)" style="fill: none; stroke: #d3d3d3; stroke-width: 0.5; stroke-linecap: square"/>
     </g>
     <g id="line2d_14"/>
    </g>
    <g id="ytick_5">
     <g id="line2d_15">
      <path d="M 226.714982 84.687043 
L 371.857131 84.687043 
" clip-path="url(#pd06b2272be)" style="fill: none; stroke: #d3d3d3; stroke-width: 0.5; stroke-linecap: square"/>
     </g>
     <g id="line2d_16"/>
    </g>
    <g id="ytick_6">
     <g id="line2d_17">
      <path d="M 226.714982 43.167527 
L 371.857131 43.167527 
" clip-path="url(#pd06b2272be)" style="fill: none; stroke: #d3d3d3; stroke-width: 0.5; stroke-linecap: square"/>
     </g>
     <g id="line2d_18"/>
    </g>
   </g>
   <g id="line2d_19">
    <path d="M 275.095699 56.910845 
L 275.095699 46.466692 
" clip-path="url(#pd06b2272be)" style="fill: none; stroke: #000000; stroke-width: 1.5; stroke-linecap: square"/>
   </g>
   <g id="line2d_20">
    <path d="M 323.476415 55.438477 
L 323.476415 46.542361 
" clip-path="url(#pd06b2272be)" style="fill: none; stroke: #000000; stroke-width: 1.5; stroke-linecap: square"/>
   </g>
   <g id="patch_7">
    <path d="M 226.714982 134.510463 
L 371.857131 134.510463 
" style="fill: none; stroke: #000000; stroke-width: 0.8; stroke-linejoin: miter; stroke-linecap: square"/>
   </g>
   <g id="PathCollection_3">
    <g clip-path="url(#pd06b2272be)">
     <use xlink:href="#m6c4fdea22c" x="275.095699" y="51.688768" style="fill: #9ec6d2; stroke: #7e9ea8"/>
    </g>
   </g>
   <g id="PathCollection_4">
    <g clip-path="url(#pd06b2272be)">
     <use xlink:href="#mc7f10ebc28" x="323.476415" y="50.990419" style="fill: #9ec6d2; stroke: #7e9ea8"/>
    </g>
   </g>
  </g>
  <g id="axes_3">
   <g id="patch_8">
    <path d="M 377.857611 134.510463 
L 522.99976 134.510463 
L 522.99976 26.55972 
L 377.857611 26.55972 
L 377.857611 134.510463 
z
" style="fill: none"/>
   </g>
   <g id="matplotlib.axis_5">
    <g id="xtick_5">
     <g id="line2d_21"/>
    </g>
    <g id="xtick_6">
     <g id="line2d_22"/>
    </g>
   </g>
   <g id="matplotlib.axis_6">
    <g id="ytick_7">
     <g id="line2d_23">
      <path d="M 377.857611 126.20656 
L 522.99976 126.20656 
" clip-path="url(#p1b5952130b)" style="fill: none; stroke: #d3d3d3; stroke-width: 0.5; stroke-linecap: square"/>
     </g>
     <g id="line2d_24"/>
    </g>
    <g id="ytick_8">
     <g id="line2d_25">
      <path d="M 377.857611 84.687043 
L 522.99976 84.687043 
" clip-path="url(#p1b5952130b)" style="fill: none; stroke: #d3d3d3; stroke-width: 0.5; stroke-linecap: square"/>
     </g>
     <g id="line2d_26"/>
    </g>
    <g id="ytick_9">
     <g id="line2d_27">
      <path d="M 377.857611 43.167527 
L 522.99976 43.167527 
" clip-path="url(#p1b5952130b)" style="fill: none; stroke: #d3d3d3; stroke-width: 0.5; stroke-linecap: square"/>
     </g>
     <g id="line2d_28"/>
    </g>
    <g id="text_8">
     <!--  -->
     <g transform="translate(561.54726 80.535092) rotate(-270) scale(0.16 -0.16)"/>
     <!--  -->
     <g transform="translate(544.62426 80.535092) rotate(-270) scale(0.16 -0.16)"/>
     <!-- True -->
     <g transform="translate(527.70126 64.387592) rotate(-270) scale(0.16 -0.16)">
      <defs>
       <path id="ArialMT-54" d="M 1659 0 
L 1659 4041 
L 150 4041 
L 150 4581 
L 3781 4581 
L 3781 4041 
L 2266 4041 
L 2266 0 
L 1659 0 
z
" transform="scale(0.015625)"/>
       <path id="ArialMT-72" d="M 416 0 
L 416 3319 
L 922 3319 
L 922 2816 
Q 1116 3169 1280 3281 
Q 1444 3394 1641 3394 
Q 1925 3394 2219 3213 
L 2025 2691 
Q 1819 2813 1613 2813 
Q 1428 2813 1281 2702 
Q 1134 2591 1072 2394 
Q 978 2094 978 1738 
L 978 0 
L 416 0 
z
" transform="scale(0.015625)"/>
       <path id="ArialMT-75" d="M 2597 0 
L 2597 488 
Q 2209 -75 1544 -75 
Q 1250 -75 995 37 
Q 741 150 617 320 
Q 494 491 444 738 
Q 409 903 409 1263 
L 409 3319 
L 972 3319 
L 972 1478 
Q 972 1038 1006 884 
Q 1059 663 1231 536 
Q 1403 409 1656 409 
Q 1909 409 2131 539 
Q 2353 669 2445 892 
Q 2538 1116 2538 1541 
L 2538 3319 
L 3100 3319 
L 3100 0 
L 2597 0 
z
" transform="scale(0.015625)"/>
       <path id="ArialMT-65" d="M 2694 1069 
L 3275 997 
Q 3138 488 2766 206 
Q 2394 -75 1816 -75 
Q 1088 -75 661 373 
Q 234 822 234 1631 
Q 234 2469 665 2931 
Q 1097 3394 1784 3394 
Q 2450 3394 2872 2941 
Q 3294 2488 3294 1666 
Q 3294 1616 3291 1516 
L 816 1516 
Q 847 969 1125 678 
Q 1403 388 1819 388 
Q 2128 388 2347 550 
Q 2566 713 2694 1069 
z
M 847 1978 
L 2700 1978 
Q 2663 2397 2488 2606 
Q 2219 2931 1791 2931 
Q 1403 2931 1139 2672 
Q 875 2413 847 1978 
z
" transform="scale(0.015625)"/>
      </defs>
      <use xlink:href="#ArialMT-54"/>
      <use xlink:href="#ArialMT-72" x="57.333984"/>
      <use xlink:href="#ArialMT-75" x="90.634766"/>
      <use xlink:href="#ArialMT-65" x="146.25"/>
     </g>
    </g>
   </g>
   <g id="line2d_29">
    <path d="M 426.238327 49.197332 
L 426.238327 36.333747 
" clip-path="url(#p1b5952130b)" style="fill: none; stroke: #000000; stroke-width: 1.5; stroke-linecap: square"/>
   </g>
   <g id="line2d_30">
    <path d="M 474.619044 41.430543 
L 474.619044 30.448323 
" clip-path="url(#p1b5952130b)" style="fill: none; stroke: #000000; stroke-width: 1.5; stroke-linecap: square"/>
   </g>
   <g id="patch_9">
    <path d="M 377.857611 134.510463 
L 522.99976 134.510463 
" style="fill: none; stroke: #000000; stroke-width: 0.8; stroke-linejoin: miter; stroke-linecap: square"/>
   </g>
   <g id="PathCollection_5">
    <g clip-path="url(#p1b5952130b)">
     <use xlink:href="#m6c4fdea22c" x="426.238327" y="42.76554" style="fill: #9ec6d2; stroke: #7e9ea8"/>
    </g>
   </g>
   <g id="PathCollection_6">
    <g clip-path="url(#p1b5952130b)">
     <use xlink:href="#mc7f10ebc28" x="474.619044" y="35.939433" style="fill: #9ec6d2; stroke: #7e9ea8"/>
    </g>
   </g>
  </g>
  <g id="axes_4">
   <g id="patch_10">
    <path d="M 75.572353 249.06376 
L 220.714502 249.06376 
L 220.714502 141.113017 
L 75.572353 141.113017 
L 75.572353 249.06376 
z
" style="fill: none"/>
   </g>
   <g id="matplotlib.axis_7">
    <g id="xtick_7">
     <g id="line2d_31"/>
    </g>
    <g id="xtick_8">
     <g id="line2d_32"/>
    </g>
    <g id="text_9">
     <!-- False -->
     <g transform="translate(128.582178 264.51626) scale(0.16 -0.16)">
      <defs>
       <path id="ArialMT-46" d="M 525 0 
L 525 4581 
L 3616 4581 
L 3616 4041 
L 1131 4041 
L 1131 2622 
L 3281 2622 
L 3281 2081 
L 1131 2081 
L 1131 0 
L 525 0 
z
" transform="scale(0.015625)"/>
       <path id="ArialMT-6c" d="M 409 0 
L 409 4581 
L 972 4581 
L 972 0 
L 409 0 
z
" transform="scale(0.015625)"/>
       <path id="ArialMT-73" d="M 197 991 
L 753 1078 
Q 800 744 1014 566 
Q 1228 388 1613 388 
Q 2000 388 2187 545 
Q 2375 703 2375 916 
Q 2375 1106 2209 1216 
Q 2094 1291 1634 1406 
Q 1016 1563 777 1677 
Q 538 1791 414 1992 
Q 291 2194 291 2438 
Q 291 2659 392 2848 
Q 494 3038 669 3163 
Q 800 3259 1026 3326 
Q 1253 3394 1513 3394 
Q 1903 3394 2198 3281 
Q 2494 3169 2634 2976 
Q 2775 2784 2828 2463 
L 2278 2388 
Q 2241 2644 2061 2787 
Q 1881 2931 1553 2931 
Q 1166 2931 1000 2803 
Q 834 2675 834 2503 
Q 834 2394 903 2306 
Q 972 2216 1119 2156 
Q 1203 2125 1616 2013 
Q 2213 1853 2448 1751 
Q 2684 1650 2818 1456 
Q 2953 1263 2953 975 
Q 2953 694 2789 445 
Q 2625 197 2315 61 
Q 2006 -75 1616 -75 
Q 969 -75 630 194 
Q 291 463 197 991 
z
" transform="scale(0.015625)"/>
      </defs>
      <use xlink:href="#ArialMT-46"/>
      <use xlink:href="#ArialMT-61" x="61.083984"/>
      <use xlink:href="#ArialMT-6c" x="116.699219"/>
      <use xlink:href="#ArialMT-73" x="138.916016"/>
      <use xlink:href="#ArialMT-65" x="188.916016"/>
     </g>
    </g>
   </g>
   <g id="matplotlib.axis_8">
    <g id="ytick_10">
     <g id="line2d_33">
      <path d="M 75.572353 240.759857 
L 220.714502 240.759857 
" clip-path="url(#p4b756c5bc6)" style="fill: none; stroke: #d3d3d3; stroke-width: 0.5; stroke-linecap: square"/>
     </g>
     <g id="line2d_34">
      <g>
       <use xlink:href="#m548df4de03" x="75.572353" y="240.759857" style="stroke: #000000; stroke-width: 0.8"/>
      </g>
     </g>
     <g id="text_10">
      <!-- 25% -->
      <g transform="translate(36.549853 246.486107) scale(0.16 -0.16)">
       <use xlink:href="#ArialMT-32"/>
       <use xlink:href="#ArialMT-35" x="55.615234"/>
       <use xlink:href="#ArialMT-25" x="111.230469"/>
      </g>
     </g>
    </g>
    <g id="ytick_11">
     <g id="line2d_35">
      <path d="M 75.572353 199.24034 
L 220.714502 199.24034 
" clip-path="url(#p4b756c5bc6)" style="fill: none; stroke: #d3d3d3; stroke-width: 0.5; stroke-linecap: square"/>
     </g>
     <g id="line2d_36">
      <g>
       <use xlink:href="#m548df4de03" x="75.572353" y="199.24034" style="stroke: #000000; stroke-width: 0.8"/>
      </g>
     </g>
     <g id="text_11">
      <!-- 50% -->
      <g transform="translate(36.549853 204.96659) scale(0.16 -0.16)">
       <use xlink:href="#ArialMT-35"/>
       <use xlink:href="#ArialMT-30" x="55.615234"/>
       <use xlink:href="#ArialMT-25" x="111.230469"/>
      </g>
     </g>
    </g>
    <g id="ytick_12">
     <g id="line2d_37">
      <path d="M 75.572353 157.720823 
L 220.714502 157.720823 
" clip-path="url(#p4b756c5bc6)" style="fill: none; stroke: #d3d3d3; stroke-width: 0.5; stroke-linecap: square"/>
     </g>
     <g id="line2d_38">
      <g>
       <use xlink:href="#m548df4de03" x="75.572353" y="157.720823" style="stroke: #000000; stroke-width: 0.8"/>
      </g>
     </g>
     <g id="text_12">
      <!-- 75% -->
      <g transform="translate(36.549853 163.447073) scale(0.16 -0.16)">
       <use xlink:href="#ArialMT-37"/>
       <use xlink:href="#ArialMT-35" x="55.615234"/>
       <use xlink:href="#ArialMT-25" x="111.230469"/>
      </g>
     </g>
    </g>
   </g>
   <g id="line2d_39">
    <path d="M 123.95307 239.324667 
L 123.95307 224.086488 
" clip-path="url(#p4b756c5bc6)" style="fill: none; stroke: #000000; stroke-width: 1.5; stroke-linecap: square"/>
   </g>
   <g id="line2d_40">
    <path d="M 172.333786 235.997626 
L 172.333786 220.307806 
" clip-path="url(#p4b756c5bc6)" style="fill: none; stroke: #000000; stroke-width: 1.5; stroke-linecap: square"/>
   </g>
   <g id="patch_11">
    <path d="M 75.572353 249.06376 
L 75.572353 141.113017 
" style="fill: none; stroke: #000000; stroke-width: 0.8; stroke-linejoin: miter; stroke-linecap: square"/>
   </g>
   <g id="patch_12">
    <path d="M 75.572353 249.06376 
L 220.714502 249.06376 
" style="fill: none; stroke: #000000; stroke-width: 0.8; stroke-linejoin: miter; stroke-linecap: square"/>
   </g>
   <g id="PathCollection_7">
    <defs>
     <path id="m13ec2b9bc8" d="M 0 4.1833 
C 1.109424 4.1833 2.173559 3.742521 2.95804 2.95804 
C 3.742521 2.173559 4.1833 1.109424 4.1833 0 
C 4.1833 -1.109424 3.742521 -2.173559 2.95804 -2.95804 
C 2.173559 -3.742521 1.109424 -4.1833 0 -4.1833 
C -1.109424 -4.1833 -2.173559 -3.742521 -2.95804 -2.95804 
C -3.742521 -2.173559 -4.1833 -1.109424 -4.1833 0 
C -4.1833 1.109424 -3.742521 2.173559 -2.95804 2.95804 
C -2.173559 3.742521 -1.109424 4.1833 0 4.1833 
z
" style="stroke: #c25050"/>
    </defs>
    <g clip-path="url(#p4b756c5bc6)">
     <use xlink:href="#m13ec2b9bc8" x="123.95307" y="231.705578" style="fill: #f26464; stroke: #c25050"/>
    </g>
   </g>
   <g id="PathCollection_8">
    <defs>
     <path id="m68cac79aeb" d="M 4.1833 0 
L -4.1833 -4.1833 
L -4.1833 4.1833 
z
" style="stroke: #c25050"/>
    </defs>
    <g clip-path="url(#p4b756c5bc6)">
     <use xlink:href="#m68cac79aeb" x="172.333786" y="228.152716" style="fill: #f26464; stroke: #c25050"/>
    </g>
   </g>
   <g id="patch_13">
    <path d="M 99.762711 238.201395 
Q 99.762711 199.242236 99.762711 160.283077 
" style="fill: none; stroke-dasharray: 2.5,5; stroke-dashoffset: 0; stroke: #000000; stroke-width: 0.5; stroke-linecap: round"/>
    <path d="M 101.762711 234.201395 
L 99.762711 238.201395 
L 97.762711 234.201395 
z
" style="stroke-dasharray: 2.5,5; stroke-dashoffset: 0; stroke: #000000; stroke-width: 0.5; stroke-linecap: round"/>
    <path d="M 97.762711 164.283077 
L 99.762711 160.283077 
L 101.762711 164.283077 
z
" style="stroke-dasharray: 2.5,5; stroke-dashoffset: 0; stroke: #000000; stroke-width: 0.5; stroke-linecap: round"/>
   </g>
   <g id="text_13">
    <!-- Bad -->
    <g transform="translate(97.059213 185.714571) rotate(-90) scale(0.12 -0.12)">
     <use xlink:href="#ArialMT-42"/>
     <use xlink:href="#ArialMT-61" x="66.699219"/>
     <use xlink:href="#ArialMT-64" x="122.314453"/>
    </g>
   </g>
   <g id="text_14">
    <!-- Good -->
    <g transform="translate(97.059213 230.795173) rotate(-90) scale(0.12 -0.12)">
     <use xlink:href="#ArialMT-47"/>
     <use xlink:href="#ArialMT-6f" x="77.783203"/>
     <use xlink:href="#ArialMT-6f" x="133.398438"/>
     <use xlink:href="#ArialMT-64" x="189.013672"/>
    </g>
   </g>
  </g>
  <g id="axes_5">
   <g id="patch_14">
    <path d="M 226.714982 249.06376 
L 371.857131 249.06376 
L 371.857131 141.113017 
L 226.714982 141.113017 
L 226.714982 249.06376 
z
" style="fill: none"/>
   </g>
   <g id="matplotlib.axis_9">
    <g id="xtick_9">
     <g id="line2d_41"/>
    </g>
    <g id="xtick_10">
     <g id="line2d_42"/>
    </g>
    <g id="text_15">
     <!-- Unsure -->
     <g transform="translate(273.498557 264.51626) scale(0.16 -0.16)">
      <defs>
       <path id="ArialMT-55" d="M 3500 4581 
L 4106 4581 
L 4106 1934 
Q 4106 1244 3950 837 
Q 3794 431 3386 176 
Q 2978 -78 2316 -78 
Q 1672 -78 1262 144 
Q 853 366 678 786 
Q 503 1206 503 1934 
L 503 4581 
L 1109 4581 
L 1109 1938 
Q 1109 1341 1220 1058 
Q 1331 775 1601 622 
Q 1872 469 2263 469 
Q 2931 469 3215 772 
Q 3500 1075 3500 1938 
L 3500 4581 
z
" transform="scale(0.015625)"/>
       <path id="ArialMT-6e" d="M 422 0 
L 422 3319 
L 928 3319 
L 928 2847 
Q 1294 3394 1984 3394 
Q 2284 3394 2536 3286 
Q 2788 3178 2913 3003 
Q 3038 2828 3088 2588 
Q 3119 2431 3119 2041 
L 3119 0 
L 2556 0 
L 2556 2019 
Q 2556 2363 2490 2533 
Q 2425 2703 2258 2804 
Q 2091 2906 1866 2906 
Q 1506 2906 1245 2678 
Q 984 2450 984 1813 
L 984 0 
L 422 0 
z
" transform="scale(0.015625)"/>
      </defs>
      <use xlink:href="#ArialMT-55"/>
      <use xlink:href="#ArialMT-6e" x="72.216797"/>
      <use xlink:href="#ArialMT-73" x="127.832031"/>
      <use xlink:href="#ArialMT-75" x="177.832031"/>
      <use xlink:href="#ArialMT-72" x="233.447266"/>
      <use xlink:href="#ArialMT-65" x="266.748047"/>
     </g>
    </g>
   </g>
   <g id="matplotlib.axis_10">
    <g id="ytick_13">
     <g id="line2d_43">
      <path d="M 226.714982 240.759857 
L 371.857131 240.759857 
" clip-path="url(#pc9ce4cfe5d)" style="fill: none; stroke: #d3d3d3; stroke-width: 0.5; stroke-linecap: square"/>
     </g>
     <g id="line2d_44"/>
    </g>
    <g id="ytick_14">
     <g id="line2d_45">
      <path d="M 226.714982 199.24034 
L 371.857131 199.24034 
" clip-path="url(#pc9ce4cfe5d)" style="fill: none; stroke: #d3d3d3; stroke-width: 0.5; stroke-linecap: square"/>
     </g>
     <g id="line2d_46"/>
    </g>
    <g id="ytick_15">
     <g id="line2d_47">
      <path d="M 226.714982 157.720823 
L 371.857131 157.720823 
" clip-path="url(#pc9ce4cfe5d)" style="fill: none; stroke: #d3d3d3; stroke-width: 0.5; stroke-linecap: square"/>
     </g>
     <g id="line2d_48"/>
    </g>
   </g>
   <g id="line2d_49">
    <path d="M 275.095699 236.280573 
L 275.095699 218.707997 
" clip-path="url(#pc9ce4cfe5d)" style="fill: none; stroke: #000000; stroke-width: 1.5; stroke-linecap: square"/>
   </g>
   <g id="line2d_50">
    <path d="M 323.476415 220.756527 
L 323.476415 203.947006 
" clip-path="url(#pc9ce4cfe5d)" style="fill: none; stroke: #000000; stroke-width: 1.5; stroke-linecap: square"/>
   </g>
   <g id="LineCollection_4">
    <path d="M 342.828701 227.494285 
L 342.828701 212.351766 
" clip-path="url(#pc9ce4cfe5d)" style="fill: none; stroke: #000000"/>
   </g>
   <g id="LineCollection_5">
    <path d="M 337.99063 212.351766 
L 342.828701 212.351766 
" clip-path="url(#pc9ce4cfe5d)" style="fill: none; stroke: #000000"/>
   </g>
   <g id="LineCollection_6">
    <path d="M 337.99063 227.494285 
L 342.828701 227.494285 
" clip-path="url(#pc9ce4cfe5d)" style="fill: none; stroke: #000000"/>
   </g>
   <g id="patch_15">
    <path d="M 226.714982 249.06376 
L 371.857131 249.06376 
" style="fill: none; stroke: #000000; stroke-width: 0.8; stroke-linejoin: miter; stroke-linecap: square"/>
   </g>
   <g id="PathCollection_9">
    <g clip-path="url(#pc9ce4cfe5d)">
     <use xlink:href="#m13ec2b9bc8" x="275.095699" y="227.494285" style="fill: #f26464; stroke: #c25050"/>
    </g>
   </g>
   <g id="PathCollection_10">
    <g clip-path="url(#pc9ce4cfe5d)">
     <use xlink:href="#m68cac79aeb" x="323.476415" y="212.351766" style="fill: #f26464; stroke: #c25050"/>
    </g>
   </g>
   <g id="text_16">
    <!-- -9% -->
    <g transform="translate(335.468804 209.148214) scale(0.14 -0.14)">
     <defs>
      <path id="ArialMT-39" d="M 350 1059 
L 891 1109 
Q 959 728 1153 556 
Q 1347 384 1650 384 
Q 1909 384 2104 503 
Q 2300 622 2425 820 
Q 2550 1019 2634 1356 
Q 2719 1694 2719 2044 
Q 2719 2081 2716 2156 
Q 2547 1888 2255 1720 
Q 1963 1553 1622 1553 
Q 1053 1553 659 1965 
Q 266 2378 266 3053 
Q 266 3750 677 4175 
Q 1088 4600 1706 4600 
Q 2153 4600 2523 4359 
Q 2894 4119 3086 3673 
Q 3278 3228 3278 2384 
Q 3278 1506 3087 986 
Q 2897 466 2520 194 
Q 2144 -78 1638 -78 
Q 1100 -78 759 220 
Q 419 519 350 1059 
z
M 2653 3081 
Q 2653 3566 2395 3850 
Q 2138 4134 1775 4134 
Q 1400 4134 1122 3828 
Q 844 3522 844 3034 
Q 844 2597 1108 2323 
Q 1372 2050 1759 2050 
Q 2150 2050 2401 2323 
Q 2653 2597 2653 3081 
z
" transform="scale(0.015625)"/>
     </defs>
     <use xlink:href="#ArialMT-2d"/>
     <use xlink:href="#ArialMT-39" x="33.300781"/>
     <use xlink:href="#ArialMT-25" x="88.916016"/>
    </g>
   </g>
  </g>
  <g id="axes_6">
   <g id="patch_16">
    <path d="M 377.857611 249.06376 
L 522.99976 249.06376 
L 522.99976 141.113017 
L 377.857611 141.113017 
L 377.857611 249.06376 
z
" style="fill: none"/>
   </g>
   <g id="matplotlib.axis_11">
    <g id="xtick_11">
     <g id="line2d_51"/>
    </g>
    <g id="xtick_12">
     <g id="line2d_52"/>
    </g>
    <g id="text_17">
     <!-- True -->
     <g transform="translate(434.281186 264.51626) scale(0.16 -0.16)">
      <use xlink:href="#ArialMT-54"/>
      <use xlink:href="#ArialMT-72" x="57.333984"/>
      <use xlink:href="#ArialMT-75" x="90.634766"/>
      <use xlink:href="#ArialMT-65" x="146.25"/>
     </g>
     <!--  -->
     <g transform="translate(450.428686 281.43926) scale(0.16 -0.16)"/>
    </g>
   </g>
   <g id="matplotlib.axis_12">
    <g id="text_18">
     <!--  -->
     <g transform="translate(561.54726 195.088388) rotate(-270) scale(0.16 -0.16)"/>
     <!--  -->
     <g transform="translate(544.62426 195.088388) rotate(-270) scale(0.16 -0.16)"/>
     <!-- False -->
     <g transform="translate(527.70126 175.527138) rotate(-270) scale(0.16 -0.16)">
      <use xlink:href="#ArialMT-46"/>
      <use xlink:href="#ArialMT-61" x="61.083984"/>
      <use xlink:href="#ArialMT-6c" x="116.699219"/>
      <use xlink:href="#ArialMT-73" x="138.916016"/>
      <use xlink:href="#ArialMT-65" x="188.916016"/>
     </g>
    </g>
   </g>
  </g>
  <g id="axes_7">
   <g id="patch_17">
    <path d="M 75.572353 398.570483 
L 220.714502 398.570483 
L 220.714502 290.61974 
L 75.572353 290.61974 
L 75.572353 398.570483 
z
" style="fill: none"/>
   </g>
   <g id="matplotlib.axis_13">
    <g id="xtick_13">
     <g id="line2d_53"/>
    </g>
    <g id="xtick_14">
     <g id="line2d_54"/>
    </g>
   </g>
   <g id="matplotlib.axis_14">
    <g id="ytick_16">
     <g id="line2d_55">
      <path d="M 75.572353 390.26658 
L 220.714502 390.26658 
" clip-path="url(#pd77ba9e762)" style="fill: none; stroke: #d3d3d3; stroke-width: 0.5; stroke-linecap: square"/>
     </g>
     <g id="line2d_56">
      <g>
       <use xlink:href="#m548df4de03" x="75.572353" y="390.26658" style="stroke: #000000; stroke-width: 0.8"/>
      </g>
     </g>
     <g id="text_19">
      <!-- 25% -->
      <g transform="translate(36.549853 395.99283) scale(0.16 -0.16)">
       <use xlink:href="#ArialMT-32"/>
       <use xlink:href="#ArialMT-35" x="55.615234"/>
       <use xlink:href="#ArialMT-25" x="111.230469"/>
      </g>
     </g>
    </g>
    <g id="ytick_17">
     <g id="line2d_57">
      <path d="M 75.572353 348.747063 
L 220.714502 348.747063 
" clip-path="url(#pd77ba9e762)" style="fill: none; stroke: #d3d3d3; stroke-width: 0.5; stroke-linecap: square"/>
     </g>
     <g id="line2d_58">
      <g>
       <use xlink:href="#m548df4de03" x="75.572353" y="348.747063" style="stroke: #000000; stroke-width: 0.8"/>
      </g>
     </g>
     <g id="text_20">
      <!-- 50% -->
      <g transform="translate(36.549853 354.473313) scale(0.16 -0.16)">
       <use xlink:href="#ArialMT-35"/>
       <use xlink:href="#ArialMT-30" x="55.615234"/>
       <use xlink:href="#ArialMT-25" x="111.230469"/>
      </g>
     </g>
    </g>
    <g id="ytick_18">
     <g id="line2d_59">
      <path d="M 75.572353 307.227547 
L 220.714502 307.227547 
" clip-path="url(#pd77ba9e762)" style="fill: none; stroke: #d3d3d3; stroke-width: 0.5; stroke-linecap: square"/>
     </g>
     <g id="line2d_60">
      <g>
       <use xlink:href="#m548df4de03" x="75.572353" y="307.227547" style="stroke: #000000; stroke-width: 0.8"/>
      </g>
     </g>
     <g id="text_21">
      <!-- 75% -->
      <g transform="translate(36.549853 312.953797) scale(0.16 -0.16)">
       <use xlink:href="#ArialMT-37"/>
       <use xlink:href="#ArialMT-35" x="55.615234"/>
       <use xlink:href="#ArialMT-25" x="111.230469"/>
      </g>
     </g>
    </g>
   </g>
   <g id="line2d_61">
    <path d="M 123.95307 368.575743 
L 123.95307 353.176978 
" clip-path="url(#pd77ba9e762)" style="fill: none; stroke: #000000; stroke-width: 1.5; stroke-linecap: square"/>
   </g>
   <g id="line2d_62">
    <path d="M 172.333786 363.41009 
L 172.333786 346.740544 
" clip-path="url(#pd77ba9e762)" style="fill: none; stroke: #000000; stroke-width: 1.5; stroke-linecap: square"/>
   </g>
   <g id="patch_18">
    <path d="M 75.572353 398.570483 
L 75.572353 290.61974 
" style="fill: none; stroke: #000000; stroke-width: 0.8; stroke-linejoin: miter; stroke-linecap: square"/>
   </g>
   <g id="patch_19">
    <path d="M 75.572353 398.570483 
L 220.714502 398.570483 
" style="fill: none; stroke: #000000; stroke-width: 0.8; stroke-linejoin: miter; stroke-linecap: square"/>
   </g>
   <g id="PathCollection_11">
    <g clip-path="url(#pd77ba9e762)">
     <use xlink:href="#m6c4fdea22c" x="123.95307" y="360.87636" style="fill: #9ec6d2; stroke: #7e9ea8"/>
    </g>
   </g>
   <g id="PathCollection_12">
    <g clip-path="url(#pd77ba9e762)">
     <use xlink:href="#mc7f10ebc28" x="172.333786" y="355.075317" style="fill: #9ec6d2; stroke: #7e9ea8"/>
    </g>
   </g>
   <g id="patch_20">
    <path d="M 99.762711 387.708119 
Q 99.762711 348.74896 99.762711 309.789801 
" style="fill: none; stroke-dasharray: 2.5,5; stroke-dashoffset: 0; stroke: #000000; stroke-width: 0.5; stroke-linecap: round"/>
    <path d="M 101.762711 383.708119 
L 99.762711 387.708119 
L 97.762711 383.708119 
z
" style="stroke-dasharray: 2.5,5; stroke-dashoffset: 0; stroke: #000000; stroke-width: 0.5; stroke-linecap: round"/>
    <path d="M 97.762711 313.789801 
L 99.762711 309.789801 
L 101.762711 313.789801 
z
" style="stroke-dasharray: 2.5,5; stroke-dashoffset: 0; stroke: #000000; stroke-width: 0.5; stroke-linecap: round"/>
   </g>
   <g id="text_22">
    <!-- Good -->
    <g transform="translate(97.059213 343.223794) rotate(-90) scale(0.12 -0.12)">
     <use xlink:href="#ArialMT-47"/>
     <use xlink:href="#ArialMT-6f" x="77.783203"/>
     <use xlink:href="#ArialMT-6f" x="133.398438"/>
     <use xlink:href="#ArialMT-64" x="189.013672"/>
    </g>
   </g>
   <g id="text_23">
    <!-- Bad -->
    <g transform="translate(97.059213 380.301896) rotate(-90) scale(0.12 -0.12)">
     <use xlink:href="#ArialMT-42"/>
     <use xlink:href="#ArialMT-61" x="66.699219"/>
     <use xlink:href="#ArialMT-64" x="122.314453"/>
    </g>
   </g>
   <g id="text_24">
    <!-- (b) -->
    <g transform="translate(3.001279 312.209889) scale(0.16 -0.16)">
     <defs>
      <path id="ArialMT-62" d="M 941 0 
L 419 0 
L 419 4581 
L 981 4581 
L 981 2947 
Q 1338 3394 1891 3394 
Q 2197 3394 2470 3270 
Q 2744 3147 2920 2923 
Q 3097 2700 3197 2384 
Q 3297 2069 3297 1709 
Q 3297 856 2875 390 
Q 2453 -75 1863 -75 
Q 1275 -75 941 416 
L 941 0 
z
M 934 1684 
Q 934 1088 1097 822 
Q 1363 388 1816 388 
Q 2184 388 2453 708 
Q 2722 1028 2722 1663 
Q 2722 2313 2464 2622 
Q 2206 2931 1841 2931 
Q 1472 2931 1203 2611 
Q 934 2291 934 1684 
z
" transform="scale(0.015625)"/>
     </defs>
     <use xlink:href="#ArialMT-28"/>
     <use xlink:href="#ArialMT-62" x="33.300781"/>
     <use xlink:href="#ArialMT-29" x="88.916016"/>
    </g>
   </g>
  </g>
  <g id="axes_8">
   <g id="patch_21">
    <path d="M 226.714982 398.570483 
L 371.857131 398.570483 
L 371.857131 290.61974 
L 226.714982 290.61974 
L 226.714982 398.570483 
z
" style="fill: none"/>
   </g>
   <g id="matplotlib.axis_15">
    <g id="xtick_15">
     <g id="line2d_63"/>
    </g>
    <g id="xtick_16">
     <g id="line2d_64"/>
    </g>
   </g>
   <g id="matplotlib.axis_16">
    <g id="ytick_19">
     <g id="line2d_65">
      <path d="M 226.714982 390.26658 
L 371.857131 390.26658 
" clip-path="url(#p027952afeb)" style="fill: none; stroke: #d3d3d3; stroke-width: 0.5; stroke-linecap: square"/>
     </g>
     <g id="line2d_66"/>
    </g>
    <g id="ytick_20">
     <g id="line2d_67">
      <path d="M 226.714982 348.747063 
L 371.857131 348.747063 
" clip-path="url(#p027952afeb)" style="fill: none; stroke: #d3d3d3; stroke-width: 0.5; stroke-linecap: square"/>
     </g>
     <g id="line2d_68"/>
    </g>
    <g id="ytick_21">
     <g id="line2d_69">
      <path d="M 226.714982 307.227547 
L 371.857131 307.227547 
" clip-path="url(#p027952afeb)" style="fill: none; stroke: #d3d3d3; stroke-width: 0.5; stroke-linecap: square"/>
     </g>
     <g id="line2d_70"/>
    </g>
   </g>
   <g id="line2d_71">
    <path d="M 275.095699 362.360226 
L 275.095699 347.622053 
" clip-path="url(#p027952afeb)" style="fill: none; stroke: #000000; stroke-width: 1.5; stroke-linecap: square"/>
   </g>
   <g id="line2d_72">
    <path d="M 323.476415 352.048916 
L 323.476415 336.564285 
" clip-path="url(#p027952afeb)" style="fill: none; stroke: #000000; stroke-width: 1.5; stroke-linecap: square"/>
   </g>
   <g id="patch_22">
    <path d="M 226.714982 398.570483 
L 371.857131 398.570483 
" style="fill: none; stroke: #000000; stroke-width: 0.8; stroke-linejoin: miter; stroke-linecap: square"/>
   </g>
   <g id="PathCollection_13">
    <g clip-path="url(#p027952afeb)">
     <use xlink:href="#m6c4fdea22c" x="275.095699" y="354.991139" style="fill: #9ec6d2; stroke: #7e9ea8"/>
    </g>
   </g>
   <g id="PathCollection_14">
    <g clip-path="url(#p027952afeb)">
     <use xlink:href="#mc7f10ebc28" x="323.476415" y="344.3066" style="fill: #9ec6d2; stroke: #7e9ea8"/>
    </g>
   </g>
  </g>
  <g id="axes_9">
   <g id="patch_23">
    <path d="M 377.857611 398.570483 
L 522.99976 398.570483 
L 522.99976 290.61974 
L 377.857611 290.61974 
L 377.857611 398.570483 
z
" style="fill: none"/>
   </g>
   <g id="matplotlib.axis_17">
    <g id="xtick_17">
     <g id="line2d_73"/>
    </g>
    <g id="xtick_18">
     <g id="line2d_74"/>
    </g>
   </g>
   <g id="matplotlib.axis_18">
    <g id="ytick_22">
     <g id="line2d_75">
      <path d="M 377.857611 390.26658 
L 522.99976 390.26658 
" clip-path="url(#pc821a2a3a2)" style="fill: none; stroke: #d3d3d3; stroke-width: 0.5; stroke-linecap: square"/>
     </g>
     <g id="line2d_76"/>
    </g>
    <g id="ytick_23">
     <g id="line2d_77">
      <path d="M 377.857611 348.747063 
L 522.99976 348.747063 
" clip-path="url(#pc821a2a3a2)" style="fill: none; stroke: #d3d3d3; stroke-width: 0.5; stroke-linecap: square"/>
     </g>
     <g id="line2d_78"/>
    </g>
    <g id="ytick_24">
     <g id="line2d_79">
      <path d="M 377.857611 307.227547 
L 522.99976 307.227547 
" clip-path="url(#pc821a2a3a2)" style="fill: none; stroke: #d3d3d3; stroke-width: 0.5; stroke-linecap: square"/>
     </g>
     <g id="line2d_80"/>
    </g>
    <g id="text_25">
     <!--  -->
     <g transform="translate(561.54726 344.595112) rotate(-270) scale(0.16 -0.16)"/>
     <!--  -->
     <g transform="translate(544.62426 344.595112) rotate(-270) scale(0.16 -0.16)"/>
     <!-- True -->
     <g transform="translate(527.70126 328.447612) rotate(-270) scale(0.16 -0.16)">
      <use xlink:href="#ArialMT-54"/>
      <use xlink:href="#ArialMT-72" x="57.333984"/>
      <use xlink:href="#ArialMT-75" x="90.634766"/>
      <use xlink:href="#ArialMT-65" x="146.25"/>
     </g>
    </g>
   </g>
   <g id="line2d_81">
    <path d="M 426.238327 371.243281 
L 426.238327 355.070885 
" clip-path="url(#pc821a2a3a2)" style="fill: none; stroke: #000000; stroke-width: 1.5; stroke-linecap: square"/>
   </g>
   <g id="line2d_82">
    <path d="M 474.619044 353.377493 
L 474.619044 336.090556 
" clip-path="url(#pc821a2a3a2)" style="fill: none; stroke: #000000; stroke-width: 1.5; stroke-linecap: square"/>
   </g>
   <g id="LineCollection_7">
    <path d="M 493.97133 363.157083 
L 493.97133 344.734025 
" clip-path="url(#pc821a2a3a2)" style="fill: none; stroke: #000000"/>
   </g>
   <g id="LineCollection_8">
    <path d="M 489.133259 344.734025 
L 493.97133 344.734025 
" clip-path="url(#pc821a2a3a2)" style="fill: none; stroke: #000000"/>
   </g>
   <g id="LineCollection_9">
    <path d="M 489.133259 363.157083 
L 493.97133 363.157083 
" clip-path="url(#pc821a2a3a2)" style="fill: none; stroke: #000000"/>
   </g>
   <g id="patch_24">
    <path d="M 377.857611 398.570483 
L 522.99976 398.570483 
" style="fill: none; stroke: #000000; stroke-width: 0.8; stroke-linejoin: miter; stroke-linecap: square"/>
   </g>
   <g id="PathCollection_15">
    <g clip-path="url(#pc821a2a3a2)">
     <use xlink:href="#m6c4fdea22c" x="426.238327" y="363.157083" style="fill: #9ec6d2; stroke: #7e9ea8"/>
    </g>
   </g>
   <g id="PathCollection_16">
    <g clip-path="url(#pc821a2a3a2)">
     <use xlink:href="#mc7f10ebc28" x="474.619044" y="344.734025" style="fill: #9ec6d2; stroke: #7e9ea8"/>
    </g>
   </g>
   <g id="text_26">
    <!-- 11% -->
    <g transform="translate(485.565808 341.427361) scale(0.14 -0.14)">
     <use xlink:href="#ArialMT-31"/>
     <use xlink:href="#ArialMT-31" x="48.240234"/>
     <use xlink:href="#ArialMT-25" x="103.855469"/>
    </g>
   </g>
  </g>
  <g id="axes_10">
   <g id="patch_25">
    <path d="M 75.572353 513.12378 
L 220.714502 513.12378 
L 220.714502 405.173037 
L 75.572353 405.173037 
L 75.572353 513.12378 
z
" style="fill: none"/>
   </g>
   <g id="matplotlib.axis_19">
    <g id="xtick_19">
     <g id="line2d_83"/>
    </g>
    <g id="xtick_20">
     <g id="line2d_84"/>
    </g>
    <g id="text_27">
     <!-- False -->
     <g transform="translate(128.582178 532.07628) scale(0.16 -0.16)">
      <use xlink:href="#ArialMT-46"/>
      <use xlink:href="#ArialMT-61" x="61.083984"/>
      <use xlink:href="#ArialMT-6c" x="116.699219"/>
      <use xlink:href="#ArialMT-73" x="138.916016"/>
      <use xlink:href="#ArialMT-65" x="188.916016"/>
     </g>
    </g>
   </g>
   <g id="matplotlib.axis_20">
    <g id="ytick_25">
     <g id="line2d_85">
      <path d="M 75.572353 504.819877 
L 220.714502 504.819877 
" clip-path="url(#p8644fc9015)" style="fill: none; stroke: #d3d3d3; stroke-width: 0.5; stroke-linecap: square"/>
     </g>
     <g id="line2d_86">
      <g>
       <use xlink:href="#m548df4de03" x="75.572353" y="504.819877" style="stroke: #000000; stroke-width: 0.8"/>
      </g>
     </g>
     <g id="text_28">
      <!-- 25% -->
      <g transform="translate(36.549853 510.546127) scale(0.16 -0.16)">
       <use xlink:href="#ArialMT-32"/>
       <use xlink:href="#ArialMT-35" x="55.615234"/>
       <use xlink:href="#ArialMT-25" x="111.230469"/>
      </g>
     </g>
    </g>
    <g id="ytick_26">
     <g id="line2d_87">
      <path d="M 75.572353 463.30036 
L 220.714502 463.30036 
" clip-path="url(#p8644fc9015)" style="fill: none; stroke: #d3d3d3; stroke-width: 0.5; stroke-linecap: square"/>
     </g>
     <g id="line2d_88">
      <g>
       <use xlink:href="#m548df4de03" x="75.572353" y="463.30036" style="stroke: #000000; stroke-width: 0.8"/>
      </g>
     </g>
     <g id="text_29">
      <!-- 50% -->
      <g transform="translate(36.549853 469.02661) scale(0.16 -0.16)">
       <use xlink:href="#ArialMT-35"/>
       <use xlink:href="#ArialMT-30" x="55.615234"/>
       <use xlink:href="#ArialMT-25" x="111.230469"/>
      </g>
     </g>
    </g>
    <g id="ytick_27">
     <g id="line2d_89">
      <path d="M 75.572353 421.780843 
L 220.714502 421.780843 
" clip-path="url(#p8644fc9015)" style="fill: none; stroke: #d3d3d3; stroke-width: 0.5; stroke-linecap: square"/>
     </g>
     <g id="line2d_90">
      <g>
       <use xlink:href="#m548df4de03" x="75.572353" y="421.780843" style="stroke: #000000; stroke-width: 0.8"/>
      </g>
     </g>
     <g id="text_30">
      <!-- 75% -->
      <g transform="translate(36.549853 427.507093) scale(0.16 -0.16)">
       <use xlink:href="#ArialMT-37"/>
       <use xlink:href="#ArialMT-35" x="55.615234"/>
       <use xlink:href="#ArialMT-25" x="111.230469"/>
      </g>
     </g>
    </g>
   </g>
   <g id="line2d_91">
    <path d="M 123.95307 493.174369 
L 123.95307 478.487899 
" clip-path="url(#p8644fc9015)" style="fill: none; stroke: #000000; stroke-width: 1.5; stroke-linecap: square"/>
   </g>
   <g id="line2d_92">
    <path d="M 172.333786 482.920089 
L 172.333786 466.592681 
" clip-path="url(#p8644fc9015)" style="fill: none; stroke: #000000; stroke-width: 1.5; stroke-linecap: square"/>
   </g>
   <g id="patch_26">
    <path d="M 75.572353 513.12378 
L 75.572353 405.173037 
" style="fill: none; stroke: #000000; stroke-width: 0.8; stroke-linejoin: miter; stroke-linecap: square"/>
   </g>
   <g id="patch_27">
    <path d="M 75.572353 513.12378 
L 220.714502 513.12378 
" style="fill: none; stroke: #000000; stroke-width: 0.8; stroke-linejoin: miter; stroke-linecap: square"/>
   </g>
   <g id="PathCollection_17">
    <g clip-path="url(#p8644fc9015)">
     <use xlink:href="#m13ec2b9bc8" x="123.95307" y="485.831134" style="fill: #f26464; stroke: #c25050"/>
    </g>
   </g>
   <g id="PathCollection_18">
    <g clip-path="url(#p8644fc9015)">
     <use xlink:href="#m68cac79aeb" x="172.333786" y="474.756385" style="fill: #f26464; stroke: #c25050"/>
    </g>
   </g>
   <g id="patch_28">
    <path d="M 99.762711 502.261415 
Q 99.762711 463.302256 99.762711 424.343097 
" style="fill: none; stroke-dasharray: 2.5,5; stroke-dashoffset: 0; stroke: #000000; stroke-width: 0.5; stroke-linecap: round"/>
    <path d="M 101.762711 498.261415 
L 99.762711 502.261415 
L 97.762711 498.261415 
z
" style="stroke-dasharray: 2.5,5; stroke-dashoffset: 0; stroke: #000000; stroke-width: 0.5; stroke-linecap: round"/>
    <path d="M 97.762711 428.343097 
L 99.762711 424.343097 
L 101.762711 428.343097 
z
" style="stroke-dasharray: 2.5,5; stroke-dashoffset: 0; stroke: #000000; stroke-width: 0.5; stroke-linecap: round"/>
   </g>
   <g id="text_31">
    <!-- Bad -->
    <g transform="translate(97.059213 449.774591) rotate(-90) scale(0.12 -0.12)">
     <use xlink:href="#ArialMT-42"/>
     <use xlink:href="#ArialMT-61" x="66.699219"/>
     <use xlink:href="#ArialMT-64" x="122.314453"/>
    </g>
   </g>
   <g id="text_32">
    <!-- Good -->
    <g transform="translate(97.059213 494.855193) rotate(-90) scale(0.12 -0.12)">
     <use xlink:href="#ArialMT-47"/>
     <use xlink:href="#ArialMT-6f" x="77.783203"/>
     <use xlink:href="#ArialMT-6f" x="133.398438"/>
     <use xlink:href="#ArialMT-64" x="189.013672"/>
    </g>
   </g>
  </g>
  <g id="axes_11">
   <g id="patch_29">
    <path d="M 226.714982 513.12378 
L 371.857131 513.12378 
L 371.857131 405.173037 
L 226.714982 405.173037 
L 226.714982 513.12378 
z
" style="fill: none"/>
   </g>
   <g id="matplotlib.axis_21">
    <g id="xtick_21">
     <g id="line2d_93"/>
    </g>
    <g id="xtick_22">
     <g id="line2d_94"/>
    </g>
    <g id="text_33">
     <!-- Unsure -->
     <g transform="translate(273.498557 532.07628) scale(0.16 -0.16)">
      <use xlink:href="#ArialMT-55"/>
      <use xlink:href="#ArialMT-6e" x="72.216797"/>
      <use xlink:href="#ArialMT-73" x="127.832031"/>
      <use xlink:href="#ArialMT-75" x="177.832031"/>
      <use xlink:href="#ArialMT-72" x="233.447266"/>
      <use xlink:href="#ArialMT-65" x="266.748047"/>
     </g>
    </g>
   </g>
   <g id="matplotlib.axis_22">
    <g id="ytick_28">
     <g id="line2d_95">
      <path d="M 226.714982 504.819877 
L 371.857131 504.819877 
" clip-path="url(#p141e45554b)" style="fill: none; stroke: #d3d3d3; stroke-width: 0.5; stroke-linecap: square"/>
     </g>
     <g id="line2d_96"/>
    </g>
    <g id="ytick_29">
     <g id="line2d_97">
      <path d="M 226.714982 463.30036 
L 371.857131 463.30036 
" clip-path="url(#p141e45554b)" style="fill: none; stroke: #d3d3d3; stroke-width: 0.5; stroke-linecap: square"/>
     </g>
     <g id="line2d_98"/>
    </g>
    <g id="ytick_30">
     <g id="line2d_99">
      <path d="M 226.714982 421.780843 
L 371.857131 421.780843 
" clip-path="url(#p141e45554b)" style="fill: none; stroke: #d3d3d3; stroke-width: 0.5; stroke-linecap: square"/>
     </g>
     <g id="line2d_100"/>
    </g>
   </g>
   <g id="line2d_101">
    <path d="M 275.095699 496.267167 
L 275.095699 478.850741 
" clip-path="url(#p141e45554b)" style="fill: none; stroke: #000000; stroke-width: 1.5; stroke-linecap: square"/>
   </g>
   <g id="line2d_102">
    <path d="M 323.476415 480.436807 
L 323.476415 462.216068 
" clip-path="url(#p141e45554b)" style="fill: none; stroke: #000000; stroke-width: 1.5; stroke-linecap: square"/>
   </g>
   <g id="LineCollection_10">
    <path d="M 342.828701 487.558954 
L 342.828701 471.326438 
" clip-path="url(#p141e45554b)" style="fill: none; stroke: #000000"/>
   </g>
   <g id="LineCollection_11">
    <path d="M 337.99063 471.326438 
L 342.828701 471.326438 
" clip-path="url(#p141e45554b)" style="fill: none; stroke: #000000"/>
   </g>
   <g id="LineCollection_12">
    <path d="M 337.99063 487.558954 
L 342.828701 487.558954 
" clip-path="url(#p141e45554b)" style="fill: none; stroke: #000000"/>
   </g>
   <g id="patch_30">
    <path d="M 226.714982 513.12378 
L 371.857131 513.12378 
" style="fill: none; stroke: #000000; stroke-width: 0.8; stroke-linejoin: miter; stroke-linecap: square"/>
   </g>
   <g id="PathCollection_19">
    <g clip-path="url(#p141e45554b)">
     <use xlink:href="#m13ec2b9bc8" x="275.095699" y="487.558954" style="fill: #f26464; stroke: #c25050"/>
    </g>
   </g>
   <g id="PathCollection_20">
    <g clip-path="url(#p141e45554b)">
     <use xlink:href="#m68cac79aeb" x="323.476415" y="471.326438" style="fill: #f26464; stroke: #c25050"/>
    </g>
   </g>
   <g id="text_34">
    <!-- -10% -->
    <g transform="translate(336.42422 468.092265) scale(0.14 -0.14)">
     <use xlink:href="#ArialMT-2d"/>
     <use xlink:href="#ArialMT-31" x="33.300781"/>
     <use xlink:href="#ArialMT-30" x="88.916016"/>
     <use xlink:href="#ArialMT-25" x="144.53125"/>
    </g>
   </g>
  </g>
  <g id="axes_12">
   <g id="patch_31">
    <path d="M 377.857611 513.12378 
L 522.99976 513.12378 
L 522.99976 405.173037 
L 377.857611 405.173037 
L 377.857611 513.12378 
z
" style="fill: none"/>
   </g>
   <g id="matplotlib.axis_23">
    <g id="xtick_23">
     <g id="line2d_103"/>
    </g>
    <g id="xtick_24">
     <g id="line2d_104"/>
    </g>
    <g id="text_35">
     <!-- True -->
     <g transform="translate(434.281186 532.07628) scale(0.16 -0.16)">
      <use xlink:href="#ArialMT-54"/>
      <use xlink:href="#ArialMT-72" x="57.333984"/>
      <use xlink:href="#ArialMT-75" x="90.634766"/>
      <use xlink:href="#ArialMT-65" x="146.25"/>
     </g>
     <!--  -->
     <g transform="translate(450.428686 548.99928) scale(0.16 -0.16)"/>
    </g>
   </g>
   <g id="matplotlib.axis_24">
    <g id="text_36">
     <!--  -->
     <g transform="translate(561.54726 459.148408) rotate(-270) scale(0.16 -0.16)"/>
     <!--  -->
     <g transform="translate(544.62426 459.148408) rotate(-270) scale(0.16 -0.16)"/>
     <!-- False -->
     <g transform="translate(527.70126 439.587158) rotate(-270) scale(0.16 -0.16)">
      <use xlink:href="#ArialMT-46"/>
      <use xlink:href="#ArialMT-61" x="61.083984"/>
      <use xlink:href="#ArialMT-6c" x="116.699219"/>
      <use xlink:href="#ArialMT-73" x="138.916016"/>
      <use xlink:href="#ArialMT-65" x="188.916016"/>
     </g>
    </g>
   </g>
  </g>
  <g id="text_37">
   <!-- Believed -->
   <g transform="translate(22.9725 168.92625) rotate(-90) scale(0.16 -0.16)">
    <defs>
     <path id="ArialMT-69" d="M 425 3934 
L 425 4581 
L 988 4581 
L 988 3934 
L 425 3934 
z
M 425 0 
L 425 3319 
L 988 3319 
L 988 0 
L 425 0 
z
" transform="scale(0.015625)"/>
     <path id="ArialMT-76" d="M 1344 0 
L 81 3319 
L 675 3319 
L 1388 1331 
Q 1503 1009 1600 663 
Q 1675 925 1809 1294 
L 2547 3319 
L 3125 3319 
L 1869 0 
L 1344 0 
z
" transform="scale(0.015625)"/>
    </defs>
    <use xlink:href="#ArialMT-42"/>
    <use xlink:href="#ArialMT-65" x="66.699219"/>
    <use xlink:href="#ArialMT-6c" x="122.314453"/>
    <use xlink:href="#ArialMT-69" x="144.53125"/>
    <use xlink:href="#ArialMT-65" x="166.748047"/>
    <use xlink:href="#ArialMT-76" x="222.363281"/>
    <use xlink:href="#ArialMT-65" x="272.363281"/>
    <use xlink:href="#ArialMT-64" x="327.978516"/>
   </g>
  </g>
  <g id="text_38">
   <!-- Willing to share -->
   <g transform="translate(22.9725 457.885) rotate(-90) scale(0.16 -0.16)">
    <defs>
     <path id="ArialMT-57" d="M 1294 0 
L 78 4581 
L 700 4581 
L 1397 1578 
Q 1509 1106 1591 641 
Q 1766 1375 1797 1488 
L 2669 4581 
L 3400 4581 
L 4056 2263 
Q 4303 1400 4413 641 
Q 4500 1075 4641 1638 
L 5359 4581 
L 5969 4581 
L 4713 0 
L 4128 0 
L 3163 3491 
Q 3041 3928 3019 4028 
Q 2947 3713 2884 3491 
L 1913 0 
L 1294 0 
z
" transform="scale(0.015625)"/>
     <path id="ArialMT-67" d="M 319 -275 
L 866 -356 
Q 900 -609 1056 -725 
Q 1266 -881 1628 -881 
Q 2019 -881 2231 -725 
Q 2444 -569 2519 -288 
Q 2563 -116 2559 434 
Q 2191 0 1641 0 
Q 956 0 581 494 
Q 206 988 206 1678 
Q 206 2153 378 2554 
Q 550 2956 876 3175 
Q 1203 3394 1644 3394 
Q 2231 3394 2613 2919 
L 2613 3319 
L 3131 3319 
L 3131 450 
Q 3131 -325 2973 -648 
Q 2816 -972 2473 -1159 
Q 2131 -1347 1631 -1347 
Q 1038 -1347 672 -1080 
Q 306 -813 319 -275 
z
M 784 1719 
Q 784 1066 1043 766 
Q 1303 466 1694 466 
Q 2081 466 2343 764 
Q 2606 1063 2606 1700 
Q 2606 2309 2336 2618 
Q 2066 2928 1684 2928 
Q 1309 2928 1046 2623 
Q 784 2319 784 1719 
z
" transform="scale(0.015625)"/>
     <path id="ArialMT-20" transform="scale(0.015625)"/>
     <path id="ArialMT-74" d="M 1650 503 
L 1731 6 
Q 1494 -44 1306 -44 
Q 1000 -44 831 53 
Q 663 150 594 308 
Q 525 466 525 972 
L 525 2881 
L 113 2881 
L 113 3319 
L 525 3319 
L 525 4141 
L 1084 4478 
L 1084 3319 
L 1650 3319 
L 1650 2881 
L 1084 2881 
L 1084 941 
Q 1084 700 1114 631 
Q 1144 563 1211 522 
Q 1278 481 1403 481 
Q 1497 481 1650 503 
z
" transform="scale(0.015625)"/>
     <path id="ArialMT-68" d="M 422 0 
L 422 4581 
L 984 4581 
L 984 2938 
Q 1378 3394 1978 3394 
Q 2347 3394 2619 3248 
Q 2891 3103 3008 2847 
Q 3125 2591 3125 2103 
L 3125 0 
L 2563 0 
L 2563 2103 
Q 2563 2525 2380 2717 
Q 2197 2909 1863 2909 
Q 1613 2909 1392 2779 
Q 1172 2650 1078 2428 
Q 984 2206 984 1816 
L 984 0 
L 422 0 
z
" transform="scale(0.015625)"/>
    </defs>
    <use xlink:href="#ArialMT-57"/>
    <use xlink:href="#ArialMT-69" x="94.384766"/>
    <use xlink:href="#ArialMT-6c" x="116.601562"/>
    <use xlink:href="#ArialMT-6c" x="138.818359"/>
    <use xlink:href="#ArialMT-69" x="161.035156"/>
    <use xlink:href="#ArialMT-6e" x="183.251953"/>
    <use xlink:href="#ArialMT-67" x="238.867188"/>
    <use xlink:href="#ArialMT-20" x="294.482422"/>
    <use xlink:href="#ArialMT-74" x="322.265625"/>
    <use xlink:href="#ArialMT-6f" x="350.048828"/>
    <use xlink:href="#ArialMT-20" x="405.664062"/>
    <use xlink:href="#ArialMT-73" x="433.447266"/>
    <use xlink:href="#ArialMT-68" x="483.447266"/>
    <use xlink:href="#ArialMT-61" x="539.0625"/>
    <use xlink:href="#ArialMT-72" x="594.677734"/>
    <use xlink:href="#ArialMT-65" x="627.978516"/>
   </g>
  </g>
  <g id="text_39">
   <!--       LLM judgment -->
   <g transform="translate(220.0125 569.63226) scale(0.16 -0.16)">
    <defs>
     <path id="Arial-BoldMT-20" transform="scale(0.015625)"/>
     <path id="Arial-BoldMT-4c" d="M 491 0 
L 491 4544 
L 1416 4544 
L 1416 772 
L 3716 772 
L 3716 0 
L 491 0 
z
" transform="scale(0.015625)"/>
     <path id="Arial-BoldMT-4d" d="M 453 0 
L 453 4581 
L 1838 4581 
L 2669 1456 
L 3491 4581 
L 4878 4581 
L 4878 0 
L 4019 0 
L 4019 3606 
L 3109 0 
L 2219 0 
L 1313 3606 
L 1313 0 
L 453 0 
z
" transform="scale(0.015625)"/>
     <path id="Arial-BoldMT-6a" d="M 441 3769 
L 441 4581 
L 1319 4581 
L 1319 3769 
L 441 3769 
z
M 1319 3319 
L 1319 103 
Q 1319 -531 1236 -792 
Q 1153 -1053 917 -1200 
Q 681 -1347 316 -1347 
Q 184 -1347 32 -1323 
Q -119 -1300 -294 -1253 
L -141 -503 
Q -78 -516 -23 -523 
Q 31 -531 78 -531 
Q 213 -531 298 -473 
Q 384 -416 412 -334 
Q 441 -253 441 153 
L 441 3319 
L 1319 3319 
z
" transform="scale(0.015625)"/>
     <path id="Arial-BoldMT-75" d="M 2644 0 
L 2644 497 
Q 2463 231 2167 78 
Q 1872 -75 1544 -75 
Q 1209 -75 943 72 
Q 678 219 559 484 
Q 441 750 441 1219 
L 441 3319 
L 1319 3319 
L 1319 1794 
Q 1319 1094 1367 936 
Q 1416 778 1544 686 
Q 1672 594 1869 594 
Q 2094 594 2272 717 
Q 2450 841 2515 1023 
Q 2581 1206 2581 1919 
L 2581 3319 
L 3459 3319 
L 3459 0 
L 2644 0 
z
" transform="scale(0.015625)"/>
     <path id="Arial-BoldMT-64" d="M 3503 0 
L 2688 0 
L 2688 488 
Q 2484 203 2207 64 
Q 1931 -75 1650 -75 
Q 1078 -75 670 386 
Q 263 847 263 1672 
Q 263 2516 659 2955 
Q 1056 3394 1663 3394 
Q 2219 3394 2625 2931 
L 2625 4581 
L 3503 4581 
L 3503 0 
z
M 1159 1731 
Q 1159 1200 1306 963 
Q 1519 619 1900 619 
Q 2203 619 2415 876 
Q 2628 1134 2628 1647 
Q 2628 2219 2422 2470 
Q 2216 2722 1894 2722 
Q 1581 2722 1370 2473 
Q 1159 2225 1159 1731 
z
" transform="scale(0.015625)"/>
     <path id="Arial-BoldMT-67" d="M 378 -219 
L 1381 -341 
Q 1406 -516 1497 -581 
Q 1622 -675 1891 -675 
Q 2234 -675 2406 -572 
Q 2522 -503 2581 -350 
Q 2622 -241 2622 53 
L 2622 538 
Q 2228 0 1628 0 
Q 959 0 569 566 
Q 263 1013 263 1678 
Q 263 2513 664 2953 
Q 1066 3394 1663 3394 
Q 2278 3394 2678 2853 
L 2678 3319 
L 3500 3319 
L 3500 341 
Q 3500 -247 3403 -537 
Q 3306 -828 3131 -993 
Q 2956 -1159 2664 -1253 
Q 2372 -1347 1925 -1347 
Q 1081 -1347 728 -1058 
Q 375 -769 375 -325 
Q 375 -281 378 -219 
z
M 1163 1728 
Q 1163 1200 1367 954 
Q 1572 709 1872 709 
Q 2194 709 2416 961 
Q 2638 1213 2638 1706 
Q 2638 2222 2425 2472 
Q 2213 2722 1888 2722 
Q 1572 2722 1367 2476 
Q 1163 2231 1163 1728 
z
" transform="scale(0.015625)"/>
     <path id="Arial-BoldMT-6d" d="M 394 3319 
L 1203 3319 
L 1203 2866 
Q 1638 3394 2238 3394 
Q 2556 3394 2790 3262 
Q 3025 3131 3175 2866 
Q 3394 3131 3647 3262 
Q 3900 3394 4188 3394 
Q 4553 3394 4806 3245 
Q 5059 3097 5184 2809 
Q 5275 2597 5275 2122 
L 5275 0 
L 4397 0 
L 4397 1897 
Q 4397 2391 4306 2534 
Q 4184 2722 3931 2722 
Q 3747 2722 3584 2609 
Q 3422 2497 3350 2280 
Q 3278 2063 3278 1594 
L 3278 0 
L 2400 0 
L 2400 1819 
Q 2400 2303 2353 2443 
Q 2306 2584 2207 2653 
Q 2109 2722 1941 2722 
Q 1738 2722 1575 2612 
Q 1413 2503 1342 2297 
Q 1272 2091 1272 1613 
L 1272 0 
L 394 0 
L 394 3319 
z
" transform="scale(0.015625)"/>
     <path id="Arial-BoldMT-65" d="M 2381 1056 
L 3256 909 
Q 3088 428 2723 176 
Q 2359 -75 1813 -75 
Q 947 -75 531 491 
Q 203 944 203 1634 
Q 203 2459 634 2926 
Q 1066 3394 1725 3394 
Q 2466 3394 2894 2905 
Q 3322 2416 3303 1406 
L 1103 1406 
Q 1113 1016 1316 798 
Q 1519 581 1822 581 
Q 2028 581 2168 693 
Q 2309 806 2381 1056 
z
M 2431 1944 
Q 2422 2325 2234 2523 
Q 2047 2722 1778 2722 
Q 1491 2722 1303 2513 
Q 1116 2303 1119 1944 
L 2431 1944 
z
" transform="scale(0.015625)"/>
     <path id="Arial-BoldMT-6e" d="M 3478 0 
L 2600 0 
L 2600 1694 
Q 2600 2231 2544 2389 
Q 2488 2547 2361 2634 
Q 2234 2722 2056 2722 
Q 1828 2722 1647 2597 
Q 1466 2472 1398 2265 
Q 1331 2059 1331 1503 
L 1331 0 
L 453 0 
L 453 3319 
L 1269 3319 
L 1269 2831 
Q 1703 3394 2363 3394 
Q 2653 3394 2893 3289 
Q 3134 3184 3257 3021 
Q 3381 2859 3429 2653 
Q 3478 2447 3478 2063 
L 3478 0 
z
" transform="scale(0.015625)"/>
     <path id="Arial-BoldMT-74" d="M 1981 3319 
L 1981 2619 
L 1381 2619 
L 1381 1281 
Q 1381 875 1398 808 
Q 1416 741 1477 697 
Q 1538 653 1625 653 
Q 1747 653 1978 738 
L 2053 56 
Q 1747 -75 1359 -75 
Q 1122 -75 931 4 
Q 741 84 652 211 
Q 563 338 528 553 
Q 500 706 500 1172 
L 500 2619 
L 97 2619 
L 97 3319 
L 500 3319 
L 500 3978 
L 1381 4491 
L 1381 3319 
L 1981 3319 
z
" transform="scale(0.015625)"/>
    </defs>
    <use xlink:href="#Arial-BoldMT-20"/>
    <use xlink:href="#Arial-BoldMT-20" x="27.783203"/>
    <use xlink:href="#Arial-BoldMT-20" x="55.566406"/>
    <use xlink:href="#Arial-BoldMT-20" x="83.349609"/>
    <use xlink:href="#Arial-BoldMT-20" x="111.132812"/>
    <use xlink:href="#Arial-BoldMT-20" x="138.916016"/>
    <use xlink:href="#Arial-BoldMT-4c" x="166.699219"/>
    <use xlink:href="#Arial-BoldMT-4c" x="227.783203"/>
    <use xlink:href="#Arial-BoldMT-4d" x="288.867188"/>
    <use xlink:href="#Arial-BoldMT-20" x="372.167969"/>
    <use xlink:href="#Arial-BoldMT-6a" x="399.951172"/>
    <use xlink:href="#Arial-BoldMT-75" x="427.734375"/>
    <use xlink:href="#Arial-BoldMT-64" x="488.818359"/>
    <use xlink:href="#Arial-BoldMT-67" x="549.902344"/>
    <use xlink:href="#Arial-BoldMT-6d" x="610.986328"/>
    <use xlink:href="#Arial-BoldMT-65" x="699.902344"/>
    <use xlink:href="#Arial-BoldMT-6e" x="755.517578"/>
    <use xlink:href="#Arial-BoldMT-74" x="816.601562"/>
   </g>
  </g>
  <g id="text_40">
   <!--   -->
   <g transform="translate(285.333 16.74324) scale(0.192 -0.192)">
    <use xlink:href="#ArialMT-20"/>
   </g>
  </g>
  <g id="text_41">
   <!-- Veracity -->
   <g transform="translate(558.7875 107.54875) rotate(-270) scale(0.16 -0.16)">
    <defs>
     <path id="Arial-BoldMT-56" d="M 1634 0 
L -3 4581 
L 1000 4581 
L 2159 1191 
L 3281 4581 
L 4263 4581 
L 2622 0 
L 1634 0 
z
" transform="scale(0.015625)"/>
     <path id="Arial-BoldMT-72" d="M 1300 0 
L 422 0 
L 422 3319 
L 1238 3319 
L 1238 2847 
Q 1447 3181 1614 3287 
Q 1781 3394 1994 3394 
Q 2294 3394 2572 3228 
L 2300 2463 
Q 2078 2606 1888 2606 
Q 1703 2606 1575 2504 
Q 1447 2403 1373 2137 
Q 1300 1872 1300 1025 
L 1300 0 
z
" transform="scale(0.015625)"/>
     <path id="Arial-BoldMT-61" d="M 1116 2306 
L 319 2450 
Q 453 2931 781 3162 
Q 1109 3394 1756 3394 
Q 2344 3394 2631 3255 
Q 2919 3116 3036 2902 
Q 3153 2688 3153 2116 
L 3144 1091 
Q 3144 653 3186 445 
Q 3228 238 3344 0 
L 2475 0 
Q 2441 88 2391 259 
Q 2369 338 2359 363 
Q 2134 144 1878 34 
Q 1622 -75 1331 -75 
Q 819 -75 523 203 
Q 228 481 228 906 
Q 228 1188 362 1408 
Q 497 1628 739 1745 
Q 981 1863 1438 1950 
Q 2053 2066 2291 2166 
L 2291 2253 
Q 2291 2506 2166 2614 
Q 2041 2722 1694 2722 
Q 1459 2722 1328 2630 
Q 1197 2538 1116 2306 
z
M 2291 1594 
Q 2122 1538 1756 1459 
Q 1391 1381 1278 1306 
Q 1106 1184 1106 997 
Q 1106 813 1243 678 
Q 1381 544 1594 544 
Q 1831 544 2047 700 
Q 2206 819 2256 991 
Q 2291 1103 2291 1419 
L 2291 1594 
z
" transform="scale(0.015625)"/>
     <path id="Arial-BoldMT-63" d="M 3353 2338 
L 2488 2181 
Q 2444 2441 2289 2572 
Q 2134 2703 1888 2703 
Q 1559 2703 1364 2476 
Q 1169 2250 1169 1719 
Q 1169 1128 1367 884 
Q 1566 641 1900 641 
Q 2150 641 2309 783 
Q 2469 925 2534 1272 
L 3397 1125 
Q 3263 531 2881 228 
Q 2500 -75 1859 -75 
Q 1131 -75 698 384 
Q 266 844 266 1656 
Q 266 2478 700 2936 
Q 1134 3394 1875 3394 
Q 2481 3394 2839 3133 
Q 3197 2872 3353 2338 
z
" transform="scale(0.015625)"/>
     <path id="Arial-BoldMT-69" d="M 459 3769 
L 459 4581 
L 1338 4581 
L 1338 3769 
L 459 3769 
z
M 459 0 
L 459 3319 
L 1338 3319 
L 1338 0 
L 459 0 
z
" transform="scale(0.015625)"/>
     <path id="Arial-BoldMT-79" d="M 44 3319 
L 978 3319 
L 1772 963 
L 2547 3319 
L 3456 3319 
L 2284 125 
L 2075 -453 
Q 1959 -744 1854 -897 
Q 1750 -1050 1614 -1145 
Q 1478 -1241 1279 -1294 
Q 1081 -1347 831 -1347 
Q 578 -1347 334 -1294 
L 256 -606 
Q 463 -647 628 -647 
Q 934 -647 1081 -467 
Q 1228 -288 1306 -9 
L 44 3319 
z
" transform="scale(0.015625)"/>
    </defs>
    <use xlink:href="#Arial-BoldMT-56"/>
    <use xlink:href="#Arial-BoldMT-65" x="61.199219"/>
    <use xlink:href="#Arial-BoldMT-72" x="116.814453"/>
    <use xlink:href="#Arial-BoldMT-61" x="155.730469"/>
    <use xlink:href="#Arial-BoldMT-63" x="211.345703"/>
    <use xlink:href="#Arial-BoldMT-69" x="266.960938"/>
    <use xlink:href="#Arial-BoldMT-74" x="294.744141"/>
    <use xlink:href="#Arial-BoldMT-79" x="328.044922"/>
   </g>
  </g>
  <g id="text_42">
   <!-- Veracity -->
   <g transform="translate(558.7875 372.50875) rotate(-270) scale(0.16 -0.16)">
    <use xlink:href="#Arial-BoldMT-56"/>
    <use xlink:href="#Arial-BoldMT-65" x="61.199219"/>
    <use xlink:href="#Arial-BoldMT-72" x="116.814453"/>
    <use xlink:href="#Arial-BoldMT-61" x="155.730469"/>
    <use xlink:href="#Arial-BoldMT-63" x="211.345703"/>
    <use xlink:href="#Arial-BoldMT-69" x="266.960938"/>
    <use xlink:href="#Arial-BoldMT-74" x="294.744141"/>
    <use xlink:href="#Arial-BoldMT-79" x="328.044922"/>
   </g>
  </g>
  <g id="legend_1">
   <g id="line2d_105">
    <defs>
     <path id="md7be881d21" d="M 0 3.5 
C 0.928211 3.5 1.81853 3.131218 2.474874 2.474874 
C 3.131218 1.81853 3.5 0.928211 3.5 0 
C 3.5 -0.928211 3.131218 -1.81853 2.474874 -2.474874 
C 1.81853 -3.131218 0.928211 -3.5 0 -3.5 
C -0.928211 -3.5 -1.81853 -3.131218 -2.474874 -2.474874 
C -3.131218 -1.81853 -3.5 -0.928211 -3.5 0 
C -3.5 0.928211 -3.131218 1.81853 -2.474874 2.474874 
C -1.81853 3.131218 -0.928211 3.5 0 3.5 
z
" style="stroke: #000000"/>
    </defs>
    <g>
     <use xlink:href="#md7be881d21" x="192.51625" y="20.2525" style="stroke: #000000"/>
    </g>
   </g>
   <g id="text_43">
    <!-- Control -->
    <g transform="translate(221.31625 25.8525) scale(0.16 -0.16)">
     <defs>
      <path id="ArialMT-43" d="M 3763 1606 
L 4369 1453 
Q 4178 706 3683 314 
Q 3188 -78 2472 -78 
Q 1731 -78 1267 223 
Q 803 525 561 1097 
Q 319 1669 319 2325 
Q 319 3041 592 3573 
Q 866 4106 1370 4382 
Q 1875 4659 2481 4659 
Q 3169 4659 3637 4309 
Q 4106 3959 4291 3325 
L 3694 3184 
Q 3534 3684 3231 3912 
Q 2928 4141 2469 4141 
Q 1941 4141 1586 3887 
Q 1231 3634 1087 3207 
Q 944 2781 944 2328 
Q 944 1744 1114 1308 
Q 1284 872 1643 656 
Q 2003 441 2422 441 
Q 2931 441 3284 734 
Q 3638 1028 3763 1606 
z
" transform="scale(0.015625)"/>
     </defs>
     <use xlink:href="#ArialMT-43"/>
     <use xlink:href="#ArialMT-6f" x="72.216797"/>
     <use xlink:href="#ArialMT-6e" x="127.832031"/>
     <use xlink:href="#ArialMT-74" x="183.447266"/>
     <use xlink:href="#ArialMT-72" x="211.230469"/>
     <use xlink:href="#ArialMT-6f" x="244.53125"/>
     <use xlink:href="#ArialMT-6c" x="300.146484"/>
    </g>
   </g>
   <g id="line2d_106">
    <defs>
     <path id="mee7100866d" d="M 3.5 0 
L -3.5 -3.5 
L -3.5 3.5 
z
" style="stroke: #000000; stroke-linejoin: miter"/>
    </defs>
    <g>
     <use xlink:href="#mee7100866d" x="320.89125" y="20.2525" style="stroke: #000000; stroke-linejoin: miter"/>
    </g>
   </g>
   <g id="text_44">
    <!-- Forced -->
    <g transform="translate(349.69125 25.8525) scale(0.16 -0.16)">
     <defs>
      <path id="ArialMT-63" d="M 2588 1216 
L 3141 1144 
Q 3050 572 2676 248 
Q 2303 -75 1759 -75 
Q 1078 -75 664 370 
Q 250 816 250 1647 
Q 250 2184 428 2587 
Q 606 2991 970 3192 
Q 1334 3394 1763 3394 
Q 2303 3394 2647 3120 
Q 2991 2847 3088 2344 
L 2541 2259 
Q 2463 2594 2264 2762 
Q 2066 2931 1784 2931 
Q 1359 2931 1093 2626 
Q 828 2322 828 1663 
Q 828 994 1084 691 
Q 1341 388 1753 388 
Q 2084 388 2306 591 
Q 2528 794 2588 1216 
z
" transform="scale(0.015625)"/>
     </defs>
     <use xlink:href="#ArialMT-46"/>
     <use xlink:href="#ArialMT-6f" x="61.083984"/>
     <use xlink:href="#ArialMT-72" x="116.699219"/>
     <use xlink:href="#ArialMT-63" x="150"/>
     <use xlink:href="#ArialMT-65" x="200"/>
     <use xlink:href="#ArialMT-64" x="255.615234"/>
    </g>
   </g>
  </g>
 </g>
 <defs>
  <clipPath id="p22d4c5eeaf">
   <rect x="75.572353" y="26.55972" width="145.142149" height="107.950743"/>
  </clipPath>
  <clipPath id="pd06b2272be">
   <rect x="226.714982" y="26.55972" width="145.142149" height="107.950743"/>
  </clipPath>
  <clipPath id="p1b5952130b">
   <rect x="377.857611" y="26.55972" width="145.142149" height="107.950743"/>
  </clipPath>
  <clipPath id="p4b756c5bc6">
   <rect x="75.572353" y="141.113017" width="145.142149" height="107.950743"/>
  </clipPath>
  <clipPath id="pc9ce4cfe5d">
   <rect x="226.714982" y="141.113017" width="145.142149" height="107.950743"/>
  </clipPath>
  <clipPath id="pd77ba9e762">
   <rect x="75.572353" y="290.61974" width="145.142149" height="107.950743"/>
  </clipPath>
  <clipPath id="p027952afeb">
   <rect x="226.714982" y="290.61974" width="145.142149" height="107.950743"/>
  </clipPath>
  <clipPath id="pc821a2a3a2">
   <rect x="377.857611" y="290.61974" width="145.142149" height="107.950743"/>
  </clipPath>
  <clipPath id="p8644fc9015">
   <rect x="75.572353" y="405.173037" width="145.142149" height="107.950743"/>
  </clipPath>
  <clipPath id="p141e45554b">
   <rect x="226.714982" y="405.173037" width="145.142149" height="107.950743"/>
  </clipPath>
 </defs>
</svg>
